<?xml version="1.0" standalone="no"?><!DOCTYPE svg PUBLIC "-//W3C//DTD SVG 1.1//EN" "http://www.w3.org/Graphics/SVG/1.1/DTD/svg11.dtd"><svg t="1706791645419" class="icon" viewBox="0 0 1024 1024" version="1.1" xmlns="http://www.w3.org/2000/svg" p-id="29181" xmlns:xlink="http://www.w3.org/1999/xlink" width="200" height="200"><path d="M941.4144 0H82.5856C36.9664 0 0 36.9664 0 82.5856v858.8288c0 41.0624 30.0544 75.0592 69.3248 81.408 48.64-117.5552 142.6944-211.4048 260.2496-259.9424 50.3808 39.2704 113.6128 62.9248 182.4256 62.9248 68.864 0 132.0448-23.6032 182.4256-62.9248 117.5552 48.5376 211.6096 142.3872 260.2496 259.9424 39.2704-6.3488 69.3248-40.3456 69.3248-81.408V82.5856C1024 36.9664 987.0336 0 941.4144 0zM512 759.7568c-164.1984 0-297.2672-133.12-297.2672-297.2672 0-164.1984 133.0688-297.3184 297.2672-297.3184 164.1984 0 297.2672 133.12 297.2672 297.3184 0 164.1472-133.0688 297.2672-297.2672 297.2672zM82.5344 1024h858.9312H82.5344z" fill="#457BC7" p-id="29182"></path><path d="M512 677.1712c95.488 0 176.384-62.4128 204.2368-148.6336H307.7632c27.8528 86.2208 108.7488 148.6336 204.2368 148.6336z" fill="#457BC7" p-id="29183"></path></svg>